<?xml version="1.0" encoding="UTF-8"?>
<svg width="2048px" height="768px" viewBox="0 0 2048 768" version="1.1" xmlns="http://www.w3.org/2000/svg" xmlns:xlink="http://www.w3.org/1999/xlink">
    <title>rxmetics-banner</title>
    <defs>
        <filter x="-19.5%" y="-19.5%" width="139.0%" height="139.0%" filterUnits="objectBoundingBox" id="filter-1">
            <feOffset dx="0" dy="4" in="SourceAlpha" result="shadowOffsetOuter1"></feOffset>
            <feGaussianBlur stdDeviation="8" in="shadowOffsetOuter1" result="shadowBlurOuter1"></feGaussianBlur>
            <feColorMatrix values="0 0 0 0 0   0 0 0 0 0   0 0 0 0 0  0 0 0 0.18 0" type="matrix" in="shadowBlurOuter1" result="shadowMatrixOuter1"></feColorMatrix>
            <feMerge>
                <feMergeNode in="shadowMatrixOuter1"></feMergeNode>
                <feMergeNode in="SourceGraphic"></feMergeNode>
            </feMerge>
        </filter>
        <filter x="-19.5%" y="-19.5%" width="139.0%" height="139.0%" filterUnits="objectBoundingBox" id="filter-2">
            <feOffset dx="0" dy="4" in="SourceAlpha" result="shadowOffsetOuter1"></feOffset>
            <feGaussianBlur stdDeviation="8" in="shadowOffsetOuter1" result="shadowBlurOuter1"></feGaussianBlur>
            <feColorMatrix values="0 0 0 0 0   0 0 0 0 0   0 0 0 0 0  0 0 0 0.18 0" type="matrix" in="shadowBlurOuter1" result="shadowMatrixOuter1"></feColorMatrix>
            <feMerge>
                <feMergeNode in="shadowMatrixOuter1"></feMergeNode>
                <feMergeNode in="SourceGraphic"></feMergeNode>
            </feMerge>
        </filter>
        <filter x="-19.5%" y="-19.5%" width="139.0%" height="139.0%" filterUnits="objectBoundingBox" id="filter-3">
            <feOffset dx="0" dy="4" in="SourceAlpha" result="shadowOffsetOuter1"></feOffset>
            <feGaussianBlur stdDeviation="8" in="shadowOffsetOuter1" result="shadowBlurOuter1"></feGaussianBlur>
            <feColorMatrix values="0 0 0 0 0   0 0 0 0 0   0 0 0 0 0  0 0 0 0.18 0" type="matrix" in="shadowBlurOuter1" result="shadowMatrixOuter1"></feColorMatrix>
            <feMerge>
                <feMergeNode in="shadowMatrixOuter1"></feMergeNode>
                <feMergeNode in="SourceGraphic"></feMergeNode>
            </feMerge>
        </filter>
        <filter x="-19.5%" y="-19.5%" width="139.0%" height="139.0%" filterUnits="objectBoundingBox" id="filter-4">
            <feOffset dx="0" dy="4" in="SourceAlpha" result="shadowOffsetOuter1"></feOffset>
            <feGaussianBlur stdDeviation="8" in="shadowOffsetOuter1" result="shadowBlurOuter1"></feGaussianBlur>
            <feColorMatrix values="0 0 0 0 0   0 0 0 0 0   0 0 0 0 0  0 0 0 0.18 0" type="matrix" in="shadowBlurOuter1" result="shadowMatrixOuter1"></feColorMatrix>
            <feMerge>
                <feMergeNode in="shadowMatrixOuter1"></feMergeNode>
                <feMergeNode in="SourceGraphic"></feMergeNode>
            </feMerge>
        </filter>
        <filter x="-19.5%" y="-19.5%" width="139.0%" height="139.0%" filterUnits="objectBoundingBox" id="filter-5">
            <feOffset dx="0" dy="4" in="SourceAlpha" result="shadowOffsetOuter1"></feOffset>
            <feGaussianBlur stdDeviation="8" in="shadowOffsetOuter1" result="shadowBlurOuter1"></feGaussianBlur>
            <feColorMatrix values="0 0 0 0 0   0 0 0 0 0   0 0 0 0 0  0 0 0 0.18 0" type="matrix" in="shadowBlurOuter1" result="shadowMatrixOuter1"></feColorMatrix>
            <feMerge>
                <feMergeNode in="shadowMatrixOuter1"></feMergeNode>
                <feMergeNode in="SourceGraphic"></feMergeNode>
            </feMerge>
        </filter>
        <filter x="-19.5%" y="-19.5%" width="139.0%" height="139.0%" filterUnits="objectBoundingBox" id="filter-6">
            <feOffset dx="0" dy="4" in="SourceAlpha" result="shadowOffsetOuter1"></feOffset>
            <feGaussianBlur stdDeviation="8" in="shadowOffsetOuter1" result="shadowBlurOuter1"></feGaussianBlur>
            <feColorMatrix values="0 0 0 0 0   0 0 0 0 0   0 0 0 0 0  0 0 0 0.18 0" type="matrix" in="shadowBlurOuter1" result="shadowMatrixOuter1"></feColorMatrix>
            <feMerge>
                <feMergeNode in="shadowMatrixOuter1"></feMergeNode>
                <feMergeNode in="SourceGraphic"></feMergeNode>
            </feMerge>
        </filter>
    </defs>
    <g id="rxmetics-banner" stroke="none" stroke-width="1" fill="none" fill-rule="evenodd">
        <g id="Group-7" transform="translate(1408.000000, 174.000000)">
            <g id="Group-3" filter="url(#filter-1)" transform="translate(440.000000, 0.000000)">
                <rect id="Rectangle-Copy" fill="#FFFFFF" x="0" y="0" width="200" height="200" rx="40"></rect>
                <path d="M100,130 C108.284271,130 115,136.715729 115,145 C115,153.284271 108.284271,160 100,160 C91.7157288,160 85,153.284271 85,145 C85,136.715729 91.7157288,130 100,130 Z M145,86.875 C153.284271,86.875 160,93.5907288 160,101.875 C160,110.159271 153.284271,116.875 145,116.875 L55,116.875 C46.7157288,116.875 40,110.159271 40,101.875 C40,93.5907288 46.7157288,86.875 55,86.875 L145,86.875 Z M100,40 C108.284271,40 115,46.7157288 115,55 C115,63.2842712 108.284271,70 100,70 C91.7157288,70 85,63.2842712 85,55 C85,46.7157288 91.7157288,40 100,40 Z" id="Shape" fill="#424242"></path>
            </g>
            <g id="Group-2" filter="url(#filter-2)">
                <rect id="Rectangle-Copy-3" fill="#FFFFFF" x="0" y="0" width="200" height="200" rx="40"></rect>
                <g id="RxJs_Logo_Black" transform="translate(20.000000, 21.250000)" fill="#424242" fill-rule="nonzero">
                    <path d="M49.5,14.8125 L49.5,14.8125 C34.8125,21.3125 25.625,31.875 20.4375,39.5625 C14.8125,47.9375 12.625,54.875 12.625,54.9375 L12.625,55 L12.625,55.0625 C11,59.6875 9.5,66.9375 9.5,67 C7.75,75.875 8.5625,84.125 8.5625,84.25 C8.625,84.8125 8.6875,85.375 8.75,85.875 C8.9375,83.6875 9.1875,81.4375 9.625,79.1875 C9.75,78.3125 12.0625,65.875 20.8125,56 C21.75,54.5625 31.875,41.25 50.5,41.25 C54.5,41.25 58.6875,41.875 62.875,43.125 L62.9375,43.125 L63,43.125 C63.25,43.1875 68.75,45.1875 70.75,46.1875 C72.625,47.125 75.9375,48.5625 76,48.5625 L76.0625,48.5625 L76.125,48.5625 C94.0625,57.3125 109.5625,60.125 109.6875,60.1875 C114.125,60.9375 118.125,61.3125 121.6875,61.3125 C128.8125,61.3125 133.9375,59.75 136.625,56.75 C138.8125,54.3125 138.5625,51.625 138.5625,51.625 L138.5625,51.5 L138.5625,51.375 C138.6875,44.875 133.375,37.875 128.875,33.1875 C123.875,27.9375 118.75,24.3125 118.6875,24.3125 L118.6875,24.3125 L118.6875,24.3125 C105.1875,14.3125 90.75,9.25 75.625,9.25 L75.625,9.25 C60.125,9.3125 49.625,14.75 49.5,14.8125 L49.5,14.8125 Z M98.5,32.375 C100.375,32.375 101.875,33.875 101.875,35.75 C101.875,37.625 100.375,39.125 98.5,39.125 C96.625,39.125 95.125,37.625 95.125,35.75 C95.125,33.875 96.625,32.375 98.5,32.375 Z M54.875,19.5625 C55.375,19.5625 55.6875,19.6875 55.8125,19.6875 L77.125,26.3125 L76.3125,28 L66.125,24.8125 L55.3125,21.4375 C55.25,21.4375 55.25,21.4375 55.1875,21.375 C55.125,21.375 55,21.3125 54.875,21.3125 C54.75,21.3125 54.5625,21.3125 54.4375,21.375 L54.4375,21.375 L54.4375,21.375 C52.5,21.875 47.1875,23.75 45.625,26.5625 C45.1875,27.375 45.125,28.1875 45.375,29.0625 C45.375,29.125 46.5,32.625 49.3125,36.25 L63.4375,35.5625 L72.875,35.125 L71.9375,37.0625 L48.5,38.1875 C45,33.9375 43.625,29.6875 43.625,29.6875 C41.4375,22.8125 54,19.625 54,19.625 C54.25,19.625 54.625,19.5625 54.875,19.5625 Z M129,123.5625 C143.375,117.3125 149.5,106.5 149.5,106.5 C162.9375,88.1875 158.375,68.875 158.375,68.875 C149.8125,87.5 142,92.625 142,92.625 C163.0625,60.5625 142.125,41.1875 142.125,41.1875 C150.6875,59.4375 139.3125,81.6875 139.3125,81.6875 C129.75,101.8125 116.1875,109 116.1875,109 C131.3125,111.8125 142.4375,101.625 142.4375,101.625 C120.75,125.0625 97.25,123.9375 97.25,123.9375 C107.125,135 121.9375,134.0625 121.9375,134.0625 C102.5625,138.625 84.375,132.1875 69.4375,119.75 C66.625,117.4375 63.9375,114.9375 61.4375,112.25 C61.4375,112.25 59.1875,109.875 58.75,109.25 L58.6875,109.1875 C58.375,120.75 70.4375,131.5 70.4375,131.5 C55.3125,125.25 48.375,111.6875 48.375,111.6875 C48.375,111.6875 38.1875,94.3125 45.5625,74.5 C52.875,54.9375 74.6875,50.5625 75.25,50.4375 C75.375,50.5 75.4375,50.5625 75.5625,50.5625 C75.4375,50.5 75.375,50.4375 75.25,50.375 C75.25,50.375 71.875,48.9375 69.9375,48 C68,47.0625 62.375,45 62.375,45 C58.125,43.75 54.125,43.1875 50.5,43.1875 C32.0625,43.1875 22.25,57.125 22.25,57.125 C13.5625,66.875 11.5,79.5 11.5,79.5 C9.0625,91.5625 11.6875,104.25 11.6875,104.25 C11.6875,104.25 11.9375,105.25 12,105.6875 C14,110.4375 16.5625,115.125 19.5625,119.5625 C35.8125,143.8125 62.1875,152.1875 62.1875,152.1875 C101.25,165.4375 127.9375,145.9375 127.9375,145.9375 C152.5,129.0625 157.4375,109.5625 157.4375,109.5625 C137.5625,125 129,123.5625 129,123.5625 Z M9.25,98.0625 C9.25,98.0625 7.6875,93.3125 6.875,86.0625 C6.875,86.125 6.875,86.25 6.875,86.3125 C6.875,86.1875 6.875,86.0625 6.8125,85.875 C6.75,85.375 6.6875,84.8125 6.625,84.3125 C6.625,84.3125 5.75,75.8125 7.625,66.5 C7.625,66.5 7.6875,66.25 7.75,65.875 C8,64.6875 8.25,63.4375 8.5625,62.25 C8.5625,62.1875 8.5625,62.125 8.625,62.0625 C8.625,62.0625 8.625,62.0625 8.625,62.0625 C8.625,62.0625 8.625,62.0625 8.625,62.0625 C9.1875,59.625 10,56.6875 10.8125,54.3125 C10.8125,54.3125 19.4375,26 48.625,13.0625 C48.625,13.0625 58.6875,7.75 73.875,7.375 C73.875,7.375 73.875,7.375 73.875,7.375 C73.875,7.375 71.8125,5.375 70.5,4.5 C63.375,-0.25 52.75,-1.8125 46.3125,4.875 C44.375,6.875 42.75,9.0625 40.9375,11.0625 C38.875,13.3125 36.375,15.1875 33.5,16.25 C31,17.1875 28.5,17 25.9375,17.4375 C23.3125,17.875 20.625,18.8125 18.5,20.5 C16.1875,22.375 15.25,24.875 15,27.75 C14.75,30 14.8125,32.3125 14.6875,34.5625 C14.375,41.1875 12.25,43.0625 7.5,46.75 C5.5,48.25 3.8125,50.25 2.5625,52.375 C-1.1875,59 4.8125,65.875 5.125,72.5625 C5.1875,73.9375 5.0625,75.3125 4.5625,76.625 C4.0625,78.0625 3.0625,79 2.25,80.1875 C1.125,81.75 0.375,83.625 0.6875,85.5625 C1,87.5 2,89.3125 2.9375,91 C4.75,94 7,96.6875 9.375,99.25 C9.5,99.375 9.625,99.5 9.75,99.6875 C9.75,99.625 9.6875,99.5625 9.6875,99.5 C9.75,99.6875 9.8125,99.875 9.875,100.0625 C9.6875,99.375 9.5,98.75 9.25,98.0625 Z M6.5625,75.625 C6.5625,75.875 6.5625,76.0625 6.5625,76.3125 C6.5625,76.3125 6.5625,76.375 6.5625,76.375 C6.5625,76.0625 6.5625,75.8125 6.5625,75.625 Z M7.6875,91.625 C7.6875,91.75 7.75,91.875 7.75,91.9375 C7.75,92 7.75,92.0625 7.8125,92.1875 C7.75,92 7.75,91.8125 7.6875,91.625 Z" id="Shape"></path>
                </g>
            </g>
            <g id="Group-5" filter="url(#filter-3)" transform="translate(220.000000, 220.000000)">
                <rect id="Rectangle-Copy" fill="#FFFFFF" x="0" y="0" width="200" height="200" rx="40"></rect>
                <rect id="Rectangle-Copy-2" fill="#424242" x="40" y="85" width="120" height="30"></rect>
            </g>
            <g id="Group-6" filter="url(#filter-4)" transform="translate(0.000000, 220.000000)">
                <rect id="Rectangle-Copy" fill="#FFFFFF" x="0" y="0" width="200" height="200" rx="40"></rect>
                <path d="M142.476422,57.5235776 C148.341193,63.3883476 148.341193,72.8970187 142.476422,78.7617888 L121.238211,100 L142.476422,121.238211 C148.341193,127.102981 148.341193,136.611652 142.476422,142.476422 C136.611652,148.341193 127.102981,148.341193 121.238211,142.476422 L100,121.238211 L78.7617888,142.476422 C72.8970187,148.341193 63.3883476,148.341193 57.5235776,142.476422 C51.6588075,136.611652 51.6588075,127.102981 57.5235776,121.238211 L78.7617888,100 L57.5235776,78.7617888 C51.6588075,72.8970187 51.6588075,63.3883476 57.5235776,57.5235776 C63.3883476,51.6588075 72.8970187,51.6588075 78.7617888,57.5235776 L100,78.7617888 L121.238211,57.5235776 C127.102981,51.6588075 136.611652,51.6588075 142.476422,57.5235776 Z" id="Path-Copy-2" fill="#424242"></path>
            </g>
            <g id="Group" filter="url(#filter-5)" transform="translate(220.000000, 0.000000)">
                <rect id="Rectangle-Copy" fill="#FFFFFF" x="0" y="0" width="200" height="200" rx="40"></rect>
                <path d="M145,107.5 C153.284271,107.5 160,114.215729 160,122.5 C160,130.784271 153.284271,137.5 145,137.5 L55,137.5 C46.7157288,137.5 40,130.784271 40,122.5 C40,114.215729 46.7157288,107.5 55,107.5 L145,107.5 Z M145,62.5 C153.284271,62.5 160,69.2157288 160,77.5 C160,85.7842712 153.284271,92.5 145,92.5 L55,92.5 C46.7157288,92.5 40,85.7842712 40,77.5 C40,69.2157288 46.7157288,62.5 55,62.5 L145,62.5 Z" id="Shape" fill="#424242"></path>
            </g>
            <g id="Group-4" filter="url(#filter-6)" transform="translate(440.000000, 220.000000)">
                <rect id="Rectangle-Copy" fill="#FFFFFF" x="0" y="0" width="200" height="200" rx="40"></rect>
                <path d="M100,40 C108.284271,40 115,46.7157288 115,55 L115,85 L145,85 C153.284271,85 160,91.7157288 160,100 C160,108.284271 153.284271,115 145,115 L115,115 L115,145 C115,153.284271 108.284271,160 100,160 C91.7157288,160 85,153.284271 85,145 L85,115 L55,115 C46.7157288,115 40,108.284271 40,100 C40,91.7157288 46.7157288,85 55,85 L85,85 L85,55 C85,46.7157288 91.7157288,40 100,40 Z" id="Path" fill="#424242"></path>
            </g>
        </g>
        <path d="M463.117994,397.678326 L399.605899,536.502576 L338.269169,397.626961 L301.872245,583.53125 L326.009328,583.53125 L346.316822,469.393348 L399.196506,588.96813 L453.652417,469.451109 L471.890551,583.53125 L495.810195,583.53125 L463.117994,397.678326 Z M583.828125,470.226562 C599.984002,470.226562 612.790929,475.323033 622.193964,485.628758 C631.582764,495.926151 636.199954,510.220838 636.203124,528.442158 L636.203124,528.442158 L636.123318,532.671875 L554.120959,532.671875 L554.3452,535.447368 C555.177297,545.063664 558.424104,552.715755 563.995417,558.448556 C569.766132,564.302976 577.145349,567.257812 586.171875,567.257812 C593.218961,567.257812 599.0301,565.538462 603.637281,562.187785 C607.735844,559.151907 612.380464,553.738476 617.535921,545.88548 L617.535921,545.88548 L636.365144,556.390205 C633.318694,561.37132 630.120999,565.694523 626.767307,569.356206 C623.071043,573.391924 619.113046,576.714088 614.888457,579.316737 C610.689699,581.903472 606.153245,583.795847 601.279775,584.99547 C596.348564,586.209307 590.999777,586.8125 585.234375,586.8125 C568.821565,586.8125 555.620555,581.583677 545.678793,571.039401 C535.687904,560.367316 530.75,546.196741 530.75,528.578125 C530.75,511.09553 535.544557,496.915757 545.241611,486.082547 C554.946828,475.484198 567.821995,470.226562 583.828125,470.226562 Z M584.414063,490.015625 C580.977579,490.015625 577.751577,490.543561 574.734602,491.591121 C571.705733,492.642812 568.950626,494.157762 566.46869,496.134898 C563.992863,498.107167 561.872129,500.476797 560.109552,503.246562 C557.955374,506.631698 556.426452,510.583334 555.540502,515.109375 L613.537049,515.109375 C611.70489,506.313812 608.100544,499.882229 602.853972,495.721951 C598.100014,491.952294 591.966897,490.015625 584.414063,490.015625 Z M889.242188,579.26643 L889.242188,551.08116 C884.167638,556.736252 879.646281,560.662774 875.704776,562.896294 C870.574004,565.792701 864.663654,567.257812 857.960938,567.257812 C847.440183,567.257812 838.794508,563.594491 832.005534,556.308764 C825.344023,549.071621 821.976563,539.842534 821.976563,528.578125 C821.976563,517.551519 825.458603,508.390921 832.365833,501.072545 C839.314356,493.71042 848.037335,490.015625 858.546875,490.015625 C865.258334,490.015625 871.093482,491.524902 876.065556,494.499171 C880.031255,496.774916 884.431429,500.577593 889.242188,505.938789 L889.242188,477.517906 C879.847355,472.657754 869.889208,470.226562 859.367188,470.226562 C842.422248,470.226563 828.118027,475.887811 816.465798,487.237385 C804.834249,498.566815 799.023438,512.465657 799.023438,528.929688 C799.023438,545.385352 804.75044,559.167091 816.226308,570.265463 C827.724986,581.31023 842.035069,586.8125 859.132813,586.8125 C869.1712,586.8125 879.205775,584.288754 889.242188,579.26643 Z M933.405903,552.957419 L914.347678,561.791701 C918.071358,569.85373 922.939989,575.990637 928.9984,580.163433 C935.462195,584.615442 943.26437,586.8125 952.385417,586.8125 C963.024128,586.8125 972.109618,583.4822 979.629316,576.789617 C987.32147,569.763366 991.166667,561.036722 991.166667,550.609375 C991.166667,542.613124 988.971533,536.218291 984.453826,531.481984 C979.728287,526.527791 970.510889,521.167513 956.881023,515.303535 C951.563794,513.053888 947.590889,510.775563 944.934384,508.507316 C941.804205,505.834625 940.42448,503.106698 940.42448,500.453125 C940.42448,497.351512 941.511632,494.820028 943.639153,492.837565 C945.735211,490.884421 948.257493,489.898438 951.213542,489.898438 C954.170172,489.898437 956.900988,490.886877 959.421027,492.967644 C961.333167,494.546475 963.13437,496.785317 964.810572,499.741294 L983.135491,489.987707 C979.896478,483.656941 975.920078,478.823745 971.166722,475.523753 C966.061246,471.979304 960.069957,470.226562 953.20573,470.226562 C943.830098,470.226563 935.849362,473.275622 929.274147,479.400062 C922.876583,485.503292 919.697917,493.229929 919.697917,502.5625 C919.697917,509.526451 921.502296,515.244757 925.208858,519.678096 C928.204863,523.273298 933.398987,526.826027 940.72609,530.414812 C943.447026,531.736398 946.134933,533.021921 948.783886,534.268488 C951.454413,535.525206 954.124942,536.821194 956.918501,538.223459 C964.695424,542.818914 968.213542,547.863945 968.213542,553.070312 C968.213542,557.828526 966.808096,561.328879 964.221622,563.68847 C961.695521,565.992983 957.942101,567.257812 952.854167,567.257812 C947.880508,567.257812 943.606684,565.597228 940.027979,562.287949 C938.469971,560.878016 936.244007,557.785494 933.405903,552.957419 Z M53.9878539,406.593745 L54.805214,406.595512 C77.6523675,406.69484 94.259211,410.939981 104.490824,419.591686 C115.759464,429.207592 121.367188,441.912085 121.367188,457.679688 C121.367188,470.004092 117.854068,480.609285 110.787242,489.480408 C103.121514,499.103343 92.7912174,504.947693 79.8123504,507.038847 L79.8123504,507.038847 L135.37978,583.53125 L106.949454,583.53125 L55.269766,509.46875 L47.3046875,509.46875 L47.3046875,583.53125 L24,583.53125 L24,406.59375 L53.9878539,406.593745 Z M59.03125,428.257812 L47.3046875,428.257812 L47.3046875,489.679688 L57.9765625,489.679688 C71.4749264,489.679688 81.5481608,487.00427 88.2829032,481.856566 C95.2097189,476.562052 98.765625,468.654525 98.765625,458.03125 C98.765625,448.025786 95.2929566,440.57728 88.517576,435.590432 C81.9650591,430.767617 72.1635481,428.257812 59.03125,428.257812 Z M188.912208,473.390625 L162.600933,473.390625 L202.074156,523.80357 L152.99999,583.53125 L180.037242,583.53125 L215.349654,539.661906 L249.818425,583.53125 L276.119681,583.53125 L228.826318,523.76242 L269.394207,473.390625 L242.207032,473.390625 L215.316265,507.947086 L188.912208,473.390625 Z M696.877604,431.554688 L674.510417,431.554688 L674.510417,473.390625 L663.260417,473.390625 L663.260417,494 L674.510417,494 L674.510417,583.53125 L696.877604,583.53125 L696.877604,494 L717.385417,494 L717.385417,473.390625 L696.877604,473.390625 L696.877604,431.554688 Z M764.348959,473.390625 L741.981771,473.390625 L741.981771,583.53125 L764.348959,583.53125 L764.348959,473.390625 Z M753.106771,408.9375 C748.967216,408.9375 745.416447,410.425001 742.450672,413.390776 C739.488756,416.352692 737.997396,419.862841 737.997396,423.929688 C737.997396,428.214879 739.4774,431.846889 742.450672,434.820161 C745.420232,437.789721 749.011622,439.273438 753.223959,439.273438 C757.423214,439.273438 760.971211,437.798068 763.880058,434.820161 C766.849617,431.850602 768.333334,428.259212 768.333334,424.046875 C768.333334,419.84762 766.857964,416.299622 763.880058,413.390776 C760.910498,410.421216 757.319108,408.9375 753.106771,408.9375 Z" id="RxMetics" stroke="#FFFFFF" stroke-width="4" fill="#212121" fill-rule="nonzero"></path>
    </g>
</svg>