<?xml version="1.0" encoding="UTF-8"?>
<svg width="1024px" height="1024px" viewBox="0 0 1024 1024" version="1.1" xmlns="http://www.w3.org/2000/svg" xmlns:xlink="http://www.w3.org/1999/xlink">
    <title>rxmetics-logo</title>
    <defs>
        <filter x="-19.3%" y="-19.3%" width="138.7%" height="138.7%" filterUnits="objectBoundingBox" id="filter-1">
            <feOffset dx="0" dy="6" in="SourceAlpha" result="shadowOffsetOuter1"></feOffset>
            <feGaussianBlur stdDeviation="12" in="shadowOffsetOuter1" result="shadowBlurOuter1"></feGaussianBlur>
            <feColorMatrix values="0 0 0 0 0   0 0 0 0 0   0 0 0 0 0  0 0 0 0.18 0" type="matrix" in="shadowBlurOuter1" result="shadowMatrixOuter1"></feColorMatrix>
            <feMerge>
                <feMergeNode in="shadowMatrixOuter1"></feMergeNode>
                <feMergeNode in="SourceGraphic"></feMergeNode>
            </feMerge>
        </filter>
        <filter x="-19.3%" y="-19.3%" width="138.7%" height="138.7%" filterUnits="objectBoundingBox" id="filter-2">
            <feOffset dx="0" dy="6" in="SourceAlpha" result="shadowOffsetOuter1"></feOffset>
            <feGaussianBlur stdDeviation="12" in="shadowOffsetOuter1" result="shadowBlurOuter1"></feGaussianBlur>
            <feColorMatrix values="0 0 0 0 0   0 0 0 0 0   0 0 0 0 0  0 0 0 0.18 0" type="matrix" in="shadowBlurOuter1" result="shadowMatrixOuter1"></feColorMatrix>
            <feMerge>
                <feMergeNode in="shadowMatrixOuter1"></feMergeNode>
                <feMergeNode in="SourceGraphic"></feMergeNode>
            </feMerge>
        </filter>
        <filter x="-19.3%" y="-19.3%" width="138.7%" height="138.7%" filterUnits="objectBoundingBox" id="filter-3">
            <feOffset dx="0" dy="6" in="SourceAlpha" result="shadowOffsetOuter1"></feOffset>
            <feGaussianBlur stdDeviation="12" in="shadowOffsetOuter1" result="shadowBlurOuter1"></feGaussianBlur>
            <feColorMatrix values="0 0 0 0 0   0 0 0 0 0   0 0 0 0 0  0 0 0 0.18 0" type="matrix" in="shadowBlurOuter1" result="shadowMatrixOuter1"></feColorMatrix>
            <feMerge>
                <feMergeNode in="shadowMatrixOuter1"></feMergeNode>
                <feMergeNode in="SourceGraphic"></feMergeNode>
            </feMerge>
        </filter>
        <filter x="-19.3%" y="-19.3%" width="138.7%" height="138.7%" filterUnits="objectBoundingBox" id="filter-4">
            <feOffset dx="0" dy="6" in="SourceAlpha" result="shadowOffsetOuter1"></feOffset>
            <feGaussianBlur stdDeviation="12" in="shadowOffsetOuter1" result="shadowBlurOuter1"></feGaussianBlur>
            <feColorMatrix values="0 0 0 0 0   0 0 0 0 0   0 0 0 0 0  0 0 0 0.18 0" type="matrix" in="shadowBlurOuter1" result="shadowMatrixOuter1"></feColorMatrix>
            <feMerge>
                <feMergeNode in="shadowMatrixOuter1"></feMergeNode>
                <feMergeNode in="SourceGraphic"></feMergeNode>
            </feMerge>
        </filter>
        <filter x="-19.3%" y="-19.3%" width="138.7%" height="138.7%" filterUnits="objectBoundingBox" id="filter-5">
            <feOffset dx="0" dy="6" in="SourceAlpha" result="shadowOffsetOuter1"></feOffset>
            <feGaussianBlur stdDeviation="12" in="shadowOffsetOuter1" result="shadowBlurOuter1"></feGaussianBlur>
            <feColorMatrix values="0 0 0 0 0   0 0 0 0 0   0 0 0 0 0  0 0 0 0.18 0" type="matrix" in="shadowBlurOuter1" result="shadowMatrixOuter1"></feColorMatrix>
            <feMerge>
                <feMergeNode in="shadowMatrixOuter1"></feMergeNode>
                <feMergeNode in="SourceGraphic"></feMergeNode>
            </feMerge>
        </filter>
        <filter x="-19.3%" y="-19.3%" width="138.7%" height="138.7%" filterUnits="objectBoundingBox" id="filter-6">
            <feOffset dx="0" dy="6" in="SourceAlpha" result="shadowOffsetOuter1"></feOffset>
            <feGaussianBlur stdDeviation="12" in="shadowOffsetOuter1" result="shadowBlurOuter1"></feGaussianBlur>
            <feColorMatrix values="0 0 0 0 0   0 0 0 0 0   0 0 0 0 0  0 0 0 0.18 0" type="matrix" in="shadowBlurOuter1" result="shadowMatrixOuter1"></feColorMatrix>
            <feMerge>
                <feMergeNode in="shadowMatrixOuter1"></feMergeNode>
                <feMergeNode in="SourceGraphic"></feMergeNode>
            </feMerge>
        </filter>
    </defs>
    <g id="rxmetics-logo" stroke="none" stroke-width="1" fill="none" fill-rule="evenodd">
        <g id="Group-7" transform="translate(32.000000, 197.000000)">
            <g id="Group-3" filter="url(#filter-1)" transform="translate(660.000000, 0.000000)">
                <rect id="Rectangle-Copy" fill="#FFFFFF" x="0" y="0" width="300" height="300" rx="60"></rect>
                <path d="M150,195 C162.426407,195 172.5,205.073593 172.5,217.5 C172.5,229.926407 162.426407,240 150,240 C137.573593,240 127.5,229.926407 127.5,217.5 C127.5,205.073593 137.573593,195 150,195 Z M217.5,130.3125 C229.926407,130.3125 240,140.386093 240,152.8125 C240,165.238907 229.926407,175.3125 217.5,175.3125 L82.5,175.3125 C70.0735931,175.3125 60,165.238907 60,152.8125 C60,140.386093 70.0735931,130.3125 82.5,130.3125 L217.5,130.3125 Z M150,60 C162.426407,60 172.5,70.0735931 172.5,82.5 C172.5,94.9264069 162.426407,105 150,105 C137.573593,105 127.5,94.9264069 127.5,82.5 C127.5,70.0735931 137.573593,60 150,60 Z" id="Shape" fill="#424242"></path>
            </g>
            <g id="Group-2" filter="url(#filter-2)">
                <rect id="Rectangle-Copy-3" fill="#FFFFFF" x="0" y="0" width="300" height="300" rx="60"></rect>
                <g id="RxJs_Logo_Black" transform="translate(30.000000, 31.875000)" fill="#424242" fill-rule="nonzero">
                    <path d="M74.25,22.21875 L74.25,22.21875 C52.21875,31.96875 38.4375,47.8125 30.65625,59.34375 C22.21875,71.90625 18.9375,82.3125 18.9375,82.40625 L18.9375,82.5 L18.9375,82.59375 C16.5,89.53125 14.25,100.40625 14.25,100.5 C11.625,113.8125 12.84375,126.1875 12.84375,126.375 C12.9375,127.21875 13.03125,128.0625 13.125,128.8125 C13.40625,125.53125 13.78125,122.15625 14.4375,118.78125 C14.625,117.46875 18.09375,98.8125 31.21875,84 C32.625,81.84375 47.8125,61.875 75.75,61.875 C81.75,61.875 88.03125,62.8125 94.3125,64.6875 L94.40625,64.6875 L94.5,64.6875 C94.875,64.78125 103.125,67.78125 106.125,69.28125 C108.9375,70.6875 113.90625,72.84375 114,72.84375 L114.09375,72.84375 L114.1875,72.84375 C141.09375,85.96875 164.34375,90.1875 164.53125,90.28125 C171.1875,91.40625 177.1875,91.96875 182.53125,91.96875 C193.21875,91.96875 200.90625,89.625 204.9375,85.125 C208.21875,81.46875 207.84375,77.4375 207.84375,77.4375 L207.84375,77.25 L207.84375,77.0625 C208.03125,67.3125 200.0625,56.8125 193.3125,49.78125 C185.8125,41.90625 178.125,36.46875 178.03125,36.46875 L178.03125,36.46875 L178.03125,36.46875 C157.78125,21.46875 136.125,13.875 113.4375,13.875 L113.4375,13.875 C90.1875,13.96875 74.4375,22.125 74.25,22.21875 L74.25,22.21875 Z M147.75,48.5625 C150.5625,48.5625 152.8125,50.8125 152.8125,53.625 C152.8125,56.4375 150.5625,58.6875 147.75,58.6875 C144.9375,58.6875 142.6875,56.4375 142.6875,53.625 C142.6875,50.8125 144.9375,48.5625 147.75,48.5625 Z M82.3125,29.34375 C83.0625,29.34375 83.53125,29.53125 83.71875,29.53125 L115.6875,39.46875 L114.46875,42 L99.1875,37.21875 L82.96875,32.15625 C82.875,32.15625 82.875,32.15625 82.78125,32.0625 C82.6875,32.0625 82.5,31.96875 82.3125,31.96875 C82.125,31.96875 81.84375,31.96875 81.65625,32.0625 L81.65625,32.0625 L81.65625,32.0625 C78.75,32.8125 70.78125,35.625 68.4375,39.84375 C67.78125,41.0625 67.6875,42.28125 68.0625,43.59375 C68.0625,43.6875 69.75,48.9375 73.96875,54.375 L95.15625,53.34375 L109.3125,52.6875 L107.90625,55.59375 L72.75,57.28125 C67.5,50.90625 65.4375,44.53125 65.4375,44.53125 C62.15625,34.21875 81,29.4375 81,29.4375 C81.375,29.4375 81.9375,29.34375 82.3125,29.34375 Z M193.5,185.34375 C215.0625,175.96875 224.25,159.75 224.25,159.75 C244.40625,132.28125 237.5625,103.3125 237.5625,103.3125 C224.71875,131.25 213,138.9375 213,138.9375 C244.59375,90.84375 213.1875,61.78125 213.1875,61.78125 C226.03125,89.15625 208.96875,122.53125 208.96875,122.53125 C194.625,152.71875 174.28125,163.5 174.28125,163.5 C196.96875,167.71875 213.65625,152.4375 213.65625,152.4375 C181.125,187.59375 145.875,185.90625 145.875,185.90625 C160.6875,202.5 182.90625,201.09375 182.90625,201.09375 C153.84375,207.9375 126.5625,198.28125 104.15625,179.625 C99.9375,176.15625 95.90625,172.40625 92.15625,168.375 C92.15625,168.375 88.78125,164.8125 88.125,163.875 L88.03125,163.78125 C87.5625,181.125 105.65625,197.25 105.65625,197.25 C82.96875,187.875 72.5625,167.53125 72.5625,167.53125 C72.5625,167.53125 57.28125,141.46875 68.34375,111.75 C79.3125,82.40625 112.03125,75.84375 112.875,75.65625 C113.0625,75.75 113.15625,75.84375 113.34375,75.84375 C113.15625,75.75 113.0625,75.65625 112.875,75.5625 C112.875,75.5625 107.8125,73.40625 104.90625,72 C102,70.59375 93.5625,67.5 93.5625,67.5 C87.1875,65.625 81.1875,64.78125 75.75,64.78125 C48.09375,64.78125 33.375,85.6875 33.375,85.6875 C20.34375,100.3125 17.25,119.25 17.25,119.25 C13.59375,137.34375 17.53125,156.375 17.53125,156.375 C17.53125,156.375 17.90625,157.875 18,158.53125 C21,165.65625 24.84375,172.6875 29.34375,179.34375 C53.71875,215.71875 93.28125,228.28125 93.28125,228.28125 C151.875,248.15625 191.90625,218.90625 191.90625,218.90625 C228.75,193.59375 236.15625,164.34375 236.15625,164.34375 C206.34375,187.5 193.5,185.34375 193.5,185.34375 Z M13.875,147.09375 C13.875,147.09375 11.53125,139.96875 10.3125,129.09375 C10.3125,129.1875 10.3125,129.375 10.3125,129.46875 C10.3125,129.28125 10.3125,129.09375 10.21875,128.8125 C10.125,128.0625 10.03125,127.21875 9.9375,126.46875 C9.9375,126.46875 8.625,113.71875 11.4375,99.75 C11.4375,99.75 11.53125,99.375 11.625,98.8125 C12,97.03125 12.375,95.15625 12.84375,93.375 C12.84375,93.28125 12.84375,93.1875 12.9375,93.09375 C12.9375,93.09375 12.9375,93.09375 12.9375,93.09375 C12.9375,93.09375 12.9375,93.09375 12.9375,93.09375 C13.78125,89.4375 15,85.03125 16.21875,81.46875 C16.21875,81.46875 29.15625,39 72.9375,19.59375 C72.9375,19.59375 88.03125,11.625 110.8125,11.0625 C110.8125,11.0625 110.8125,11.0625 110.8125,11.0625 C110.8125,11.0625 107.71875,8.0625 105.75,6.75 C95.0625,-0.375 79.125,-2.71875 69.46875,7.3125 C66.5625,10.3125 64.125,13.59375 61.40625,16.59375 C58.3125,19.96875 54.5625,22.78125 50.25,24.375 C46.5,25.78125 42.75,25.5 38.90625,26.15625 C34.96875,26.8125 30.9375,28.21875 27.75,30.75 C24.28125,33.5625 22.875,37.3125 22.5,41.625 C22.125,45 22.21875,48.46875 22.03125,51.84375 C21.5625,61.78125 18.375,64.59375 11.25,70.125 C8.25,72.375 5.71875,75.375 3.84375,78.5625 C-1.78125,88.5 7.21875,98.8125 7.6875,108.84375 C7.78125,110.90625 7.59375,112.96875 6.84375,114.9375 C6.09375,117.09375 4.59375,118.5 3.375,120.28125 C1.6875,122.625 0.5625,125.4375 1.03125,128.34375 C1.5,131.25 3,133.96875 4.40625,136.5 C7.125,141 10.5,145.03125 14.0625,148.875 C14.25,149.0625 14.4375,149.25 14.625,149.53125 C14.625,149.4375 14.53125,149.34375 14.53125,149.25 C14.625,149.53125 14.71875,149.8125 14.8125,150.09375 C14.53125,149.0625 14.25,148.125 13.875,147.09375 Z M9.84375,113.4375 C9.84375,113.8125 9.84375,114.09375 9.84375,114.46875 C9.84375,114.46875 9.84375,114.5625 9.84375,114.5625 C9.84375,114.09375 9.84375,113.71875 9.84375,113.4375 Z M11.53125,137.4375 C11.53125,137.625 11.625,137.8125 11.625,137.90625 C11.625,138 11.625,138.09375 11.71875,138.28125 C11.625,138 11.625,137.71875 11.53125,137.4375 Z" id="Shape"></path>
                </g>
            </g>
            <g id="Group-5" filter="url(#filter-3)" transform="translate(330.000000, 330.000000)">
                <rect id="Rectangle-Copy" fill="#FFFFFF" x="0" y="0" width="300" height="300" rx="60"></rect>
                <rect id="Rectangle-Copy-2" fill="#424242" x="60" y="127.5" width="180" height="45"></rect>
            </g>
            <g id="Group-6" filter="url(#filter-4)" transform="translate(0.000000, 330.000000)">
                <rect id="Rectangle-Copy" fill="#FFFFFF" x="0" y="0" width="300" height="300" rx="60"></rect>
                <path d="M213.714634,86.2853663 C222.511789,95.0825215 222.511789,109.345528 213.714634,118.142683 L181.857317,150 L213.714634,181.857317 C222.511789,190.654472 222.511789,204.917479 213.714634,213.714634 C204.917479,222.511789 190.654472,222.511789 181.857317,213.714634 L150,181.857317 L118.142683,213.714634 C109.345528,222.511789 95.0825215,222.511789 86.2853663,213.714634 C77.4882112,204.917479 77.4882112,190.654472 86.2853663,181.857317 L118.142683,150 L86.2853663,118.142683 C77.4882112,109.345528 77.4882112,95.0825215 86.2853663,86.2853663 C95.0825215,77.4882112 109.345528,77.4882112 118.142683,86.2853663 L150,118.142683 L181.857317,86.2853663 C190.654472,77.4882112 204.917479,77.4882112 213.714634,86.2853663 Z" id="Path-Copy-2" fill="#424242"></path>
            </g>
            <g id="Group" filter="url(#filter-5)" transform="translate(330.000000, 0.000000)">
                <rect id="Rectangle-Copy" fill="#FFFFFF" x="0" y="0" width="300" height="300" rx="60"></rect>
                <path d="M217.5,161.25 C229.926407,161.25 240,171.323593 240,183.75 C240,196.176407 229.926407,206.25 217.5,206.25 L82.5,206.25 C70.0735931,206.25 60,196.176407 60,183.75 C60,171.323593 70.0735931,161.25 82.5,161.25 L217.5,161.25 Z M217.5,93.75 C229.926407,93.75 240,103.823593 240,116.25 C240,128.676407 229.926407,138.75 217.5,138.75 L82.5,138.75 C70.0735931,138.75 60,128.676407 60,116.25 C60,103.823593 70.0735931,93.75 82.5,93.75 L217.5,93.75 Z" id="Shape" fill="#424242"></path>
            </g>
            <g id="Group-4" filter="url(#filter-6)" transform="translate(660.000000, 330.000000)">
                <rect id="Rectangle-Copy" fill="#FFFFFF" x="0" y="0" width="300" height="300" rx="60"></rect>
                <path d="M150,60 C162.426407,60 172.5,70.0735931 172.5,82.5 L172.5,127.5 L217.5,127.5 C229.926407,127.5 240,137.573593 240,150 C240,162.426407 229.926407,172.5 217.5,172.5 L172.5,172.5 L172.5,217.5 C172.5,229.926407 162.426407,240 150,240 C137.573593,240 127.5,229.926407 127.5,217.5 L127.5,172.5 L82.5,172.5 C70.0735931,172.5 60,162.426407 60,150 C60,137.573593 70.0735931,127.5 82.5,127.5 L127.5,127.5 L127.5,82.5 C127.5,70.0735931 137.573593,60 150,60 Z" id="Path" fill="#424242"></path>
            </g>
        </g>
    </g>
</svg>